<?xml version="1.0" encoding="utf-8"?>
<!-- Generator: Adobe Illustrator 19.0.0, SVG Export Plug-In . SVG Version: 6.00 Build 0)  -->
<svg version="1.1" id="Layer_1" xmlns:sketch="http://www.bohemiancoding.com/sketch/ns"
	 xmlns="http://www.w3.org/2000/svg" xmlns:xlink="http://www.w3.org/1999/xlink" x="0px" y="0px" viewBox="-83 174 332 154"
	 style="enable-background:new -83 174 332 154;" xml:space="preserve">
<style type="text/css">
	.st0{filter:url(#filter-2);}
	.st1{fill:url(#path-3_3_);}
	.st2{fill:none;}
	.st3{filter:url(#filter-5);}
	.st4{fill:url(#SVGID_1_);}
	.st5{enable-background:new    ;}
	.st6{fill:#2FC682;}
	.st7{fill:#2D4A3D;}
	.st8{font-family:'Helvetica';}
	.st9{font-size:18px;}
</style>
<filter  width="200%" height="200%" filterUnits="objectBoundingBox" y="-50%" id="filter-5" x="-50%">
	<feMorphology  radius="16" result="shadowSpreadInner1" in="SourceAlpha" operator="dilate"></feMorphology>
	<feOffset  dx="0" dy="16" result="shadowOffsetInner1" in="shadowSpreadInner1"></feOffset>
	<feGaussianBlur  result="shadowBlurInner1" in="shadowOffsetInner1" stdDeviation="8"></feGaussianBlur>
	<feComposite  k2="-1" result="shadowInnerInner1" in="shadowBlurInner1" k3="1" in2="SourceAlpha" operator="arithmetic">
		</feComposite>
	
		<feColorMatrix  type="matrix" values="0 0 0 0 0   0 0 0 0 0   0 0 0 0 0  0 0 0 0.0279976223 0" result="shadowMatrixInner1" in="shadowInnerInner1">
		</feColorMatrix>
	<feMerge>
		<feMergeNode  in="SourceGraphic"></feMergeNode>
		<feMergeNode  in="shadowMatrixInner1"></feMergeNode>
	</feMerge>
</filter>
<filter  width="200%" height="200%" filterUnits="objectBoundingBox" y="-50%" id="filter-2" x="-50%">
	<feOffset  dx="0" dy="40" result="shadowOffsetOuter1" in="SourceAlpha"></feOffset>
	<feGaussianBlur  result="shadowBlurOuter1" in="shadowOffsetOuter1" stdDeviation="8"></feGaussianBlur>
	
		<feColorMatrix  type="matrix" values="0 0 0 0 0   0 0 0 0 0   0 0 0 0 0  0 0 0 0.14117697 0" result="shadowMatrixOuter1" in="shadowBlurOuter1">
		</feColorMatrix>
	<feMerge>
		<feMergeNode  in="shadowMatrixOuter1"></feMergeNode>
		<feMergeNode  in="SourceGraphic"></feMergeNode>
	</feMerge>
</filter>
<title>dish-logo</title>
<desc>Created with Sketch.</desc>
<g id="dish-brand">
	<g id="Plate" class="st0">
		<g sketch:type="MSShapeGroup">
			
				<linearGradient id="path-3_3_" gradientUnits="userSpaceOnUse" x1="-164.6531" y1="499.2449" x2="-164.6531" y2="500.2449" gradientTransform="matrix(98 0 0 -98 16118 49198)">
				<stop  offset="0" style="stop-color:#F0F0F0"/>
				<stop  offset="1" style="stop-color:#FFFFFF"/>
			</linearGradient>
			<circle id="path-3_2_" class="st1" cx="-18" cy="223" r="49"/>
		</g>
	</g>
	<circle id="Trim-Copy" sketch:type="MSShapeGroup" class="st2" cx="-18" cy="223" r="45">
	</circle>
	<g id="Oval-1-Copy-3" sketch:type="MSShapeGroup" class="st3">
		
			<linearGradient id="SVGID_1_" gradientUnits="userSpaceOnUse" x1="-164.4878" y1="499.9024" x2="-164.4878" y2="498.9024" gradientTransform="matrix(82 0 0 -82 13470 41174)">
			<stop  offset="0" style="stop-color:#E4E4E4"/>
			<stop  offset="1" style="stop-color:#FFFFFF"/>
		</linearGradient>
		<circle class="st4" cx="-18" cy="223" r="41"/>
	</g>
</g>
<g class="st5">
	<path class="st6" d="M72.3,191.1c0-0.9-0.5-1.6-1.3-1.6c-1.2,0-2,0.1-3,0.1c-0.5,0-2.4-0.1-2.4-2.2c0.1-1.1,0.8-2.1,2.3-2.1
		c0.1,0,0.1,0,0.2,0c2,0.1,4,0.2,5.8,0.2c4,0,7.7-0.2,11.3-0.2c2,0,4,0,5.9,0.1c16.4,0.9,26.6,11.3,26.6,27.3
		c0,26.1-20.5,27.7-30.6,27.7c-3,0-5.9-0.2-10.1-0.2c-2.4,0-5.4,0-9,0.2c-1.1,0.1-2.4-0.5-2.4-2.2c0-1.1,0.8-2.3,2.3-2.3h0.1
		c1,0,1.7,0.1,3,0.1c0.8,0,1.4-0.6,1.4-1.5V191.1z M85,189.5c-7.6,0-7.9,0.2-7.9,1.8c-0.1,4.9-0.2,10.7-0.2,16.6
		c0,9.2,0.1,18.8,0.2,26.2c0,1.7,2.1,1.7,6.8,1.7c11.5,0,28.7-0.5,28.7-23.3c0-13.2-8.4-22.6-22.1-23
		C89.8,189.5,87.5,189.5,85,189.5z"/>
	<path class="st6" d="M126.4,235.6c0.9,0,2.1,0.1,3.3,0.1c1.1,0,1.5-0.5,1.5-1.4c0.2-8.4,0.2-17.5,0.2-26.3c0-5.8,0-11.5-0.2-16.8
		c0-0.9-0.6-1.5-1.5-1.5c-1.2,0-2.5,0.1-3.4,0.1c-0.5,0-2.4-0.1-2.4-2.2c0.1-1.1,0.8-2.1,2.3-2.1c0.1,0,0.1,0,0.2,0
		c1.7,0.1,4,0.2,6.4,0.2c2.9,0,5.9-0.1,8.3-0.2c2.3-0.1,2.4,1.9,2.4,2.2c-0.1,1.1-0.8,2.1-2.3,2.1c-0.1,0-0.1,0-0.2,0
		c-1.1-0.1-2.1-0.1-3.4-0.1c-1,0-1.4,0.7-1.4,1.5c-0.1,6.5-0.1,13.6-0.1,20.9c0,7.3,0,14.8,0.1,22.2c0,0.8,0.4,1.4,1.4,1.4
		c1.3,0,2.3,0,3.4-0.1c2-0.1,2.4,1.7,2.4,2.3c0,1.1-0.8,2.2-2.3,2.2c-0.1,0-0.1,0-0.2,0c-2.1-0.1-4.4-0.2-6.8-0.2
		c-2.9,0-5.6,0.1-7.8,0.2c-1.1,0.1-2.4-0.5-2.4-2.2C124,236.7,124.8,235.6,126.4,235.6L126.4,235.6z"/>
	<path class="st6" d="M153.8,227.7c0,2.5,4.2,9,13.9,9c7.3-0.1,11.9-4.8,11.9-10.2c0-4-2.4-8.1-7.8-11.2c-3.3-1.8-7.2-3.9-10.9-5.6
		c-6.2-3-9.1-7.9-9.1-12.6c0-6.5,5.3-12.6,14.8-12.6c4.3,0,8.1,1,10.7,3c0.2,0.1,0.2,0.2,0.3,0.2c0.4,0,0.3-0.9,0.4-1.4
		c0.2-1.1,1.1-1.5,2.1-1.5c1.1,0,2.2,0.7,2.2,2c0,0.1,0,0.1,0,0.2c-0.1,1.7-0.2,3.2-0.2,4.6c0,1.7,0.1,3.3,0.2,5.6
		c0.1,1.4-1.1,2.1-2.2,2.2c-1.1-0.1-2.2-0.7-2.2-2.1c0-0.1,0-0.1,0-0.2c0.1-1.2,0.1-1,0.1-1.7c0-1.8-3.3-7-11.2-7
		c-6.5,0-10.3,4-10.3,8.4c0,3.3,2.1,6.8,6.6,9c3.2,1.6,7.9,3.8,11,5.5c7.4,4,10.6,9.7,10.6,15.1c0,7.5-6.5,14.7-17.1,14.7
		c-5.4,0-10.2-1.9-13.1-5.1c-0.2-0.2-0.2-0.2-0.3-0.2c-0.5,0-0.2,1.7-0.4,3c-0.1,1.1-1.1,1.6-2.1,1.6c-1.1,0-2.3-0.7-2.3-2.1
		c0-0.1,0-0.1,0-0.2c0.1-1.9,0.2-3.7,0.2-5.5c0-2.2-0.1-4.3-0.2-6.4c0-0.2-0.1-2.2,2.2-2.2c1.1,0,2.3,0.7,2.3,2.1v0.1V227.7z"/>
	<path class="st6" d="M193.1,235.7c0.8,0,1.5,0.1,2.4,0.1c0.2,0,0.5,0,0.8,0c0.6,0,1.3-0.5,1.3-1.4c0.1-7.9,0.2-15.8,0.2-23.7
		c0-6.5-0.1-13-0.2-19.5c0-0.9-0.5-1.5-1.4-1.5c-1.2,0-2.2,0.1-3.1,0.1c-0.5,0-2.4-0.1-2.4-2.2c0.1-1.1,0.8-2.1,2.3-2.1
		c0.1,0,0.1,0,0.2,0c1.7,0.1,3.8,0.2,5.9,0.2c2.6,0,5.2-0.1,7.7-0.2c2.3-0.1,2.4,1.9,2.4,2.2c-0.1,1.1-0.8,2.1-2.3,2.1
		c-0.1,0-0.1,0-0.2,0c-1.1-0.1-1.7-0.1-3-0.1c-0.9,0-1.4,0.5-1.4,1.4c0,2.7-0.1,5.5-0.1,8.3s0.1,5.5,0.1,8.3c0,1.4,0.4,1.7,1.4,1.7
		c4.7,0.2,9.6,0.3,14.4,0.3c4.9,0,9.8-0.2,14.6-0.3c1.4-0.1,1.4-1.3,1.4-8c0-3.5-0.1-7-0.2-10.4c0-0.9-0.5-1.4-1.4-1.4
		c-1.3,0-2.1,0.1-3,0.1c-0.5,0-2.4-0.1-2.4-2.2c0-1.1,0.7-2.1,2.2-2.1c0.1,0,0.1,0,0.2,0c1.7,0.1,3.8,0.2,5.9,0.2
		c2.6,0,5.2-0.1,7.7-0.2c2.2-0.1,2.4,1.9,2.4,2.2c0,1.1-0.8,2.1-2.3,2.1c-0.1,0-0.1,0-0.2,0c-1.1-0.1-1.8-0.1-3-0.1
		c-0.9,0-1.4,0.5-1.4,1.4c-0.1,7.2-0.2,14.4-0.2,21.7s0.1,14.4,0.2,21.7c0,0.8,0.5,1.4,1.4,1.4c1.1,0,1.9-0.1,3-0.1
		c1.2,0,2.4,0.6,2.4,2.3c0,1.1-0.8,2.2-2.3,2.2c-0.1,0-0.1,0-0.2,0c-2.1-0.1-4.3-0.2-6.4-0.2c-2.5,0-5,0.1-7.2,0.2
		c-1.1,0.1-2.4-0.5-2.4-2.3c0-1.1,0.7-2.2,2.2-2.2c0.1,0,0.1,0,0.2,0c1,0,1.8,0.1,3.1,0.1c0.8,0,1.3-0.5,1.3-1.4
		c0.1-3.1,0.1-6.3,0.1-9.4c0-3.2,0-6.3-0.1-9.4c0-1.6-0.6-1.8-1.4-1.8c-4.7-0.2-9.5-0.2-14.2-0.2c-4.7,0-9.4,0-14.2,0.2
		c-1,0-1.7,0.1-1.7,1.6c-0.1,3.1-0.1,6.3-0.1,9.5c0,3.2,0,6.3,0.1,9.5c0,0.8,0.5,1.4,1.4,1.4c1.1,0,2-0.1,3-0.1
		c1.1,0,2.4,0.6,2.4,2.3c0,1.1-0.8,2.2-2.3,2.2c-0.1,0-0.1,0-0.2,0c-2.1-0.1-4.3-0.2-6.4-0.2c-2.5,0-5,0.1-7.2,0.2
		c-1.1,0.1-2.4-0.5-2.4-2.2C190.8,236.8,191.5,235.7,193.1,235.7L193.1,235.7z"/>
</g>
<text transform="matrix(1 0 0 1 66 269)" class="st7 st8 st9">Fine Cookery Products</text>
</svg>
